<svg width="377" height="411" viewBox="0 0 377 411" fill="none" xmlns="http://www.w3.org/2000/svg">
<path fill-rule="evenodd" clip-rule="evenodd" d="M344.4 294.493C364.973 264.291 377 227.8 377 188.5C377 84.3943 292.606 0 188.5 0C84.3943 0 0 84.3943 0 188.5C0 227.8 12.0267 264.291 32.6003 294.493C52.4374 361.84 114.728 411 188.5 411C262.272 411 324.563 361.84 344.4 294.493Z" fill="url(#paint0_linear_12_65)"/>
<circle cx="188.5" cy="188.5" r="188.5" fill="url(#paint1_linear_12_65)"/>
<circle cx="188.5" cy="248.5" r="162.5" fill="url(#paint2_linear_12_65)"/>
<path d="M146.004 141.76C133.799 138.481 143.1 131.976 157.64 120.966C155.616 105.243 156.628 81.9134 154.604 76.8417C154.098 63.6552 162.193 49.4544 162.193 34.2392C157.134 28.6603 144.936 23.8854 150.557 22.5742C156.774 24.7242 158.013 24.0561 155.616 19.024C144.415 13.1796 145.174 12.509 149.545 12.4307C149.421 10.3311 152.075 10.402 154.098 11.4164C149.545 2.79444 156.122 4.82314 159.157 14.9666C163.258 16.9877 169.338 25.1106 169.276 28.6603C168.77 57.5691 172.817 64.3249 167.252 78.0186V79.3776C168.427 85.5558 168.393 89.6899 168.264 97.1286C168.324 95.1605 168.915 94.804 170.287 94.5928C167.758 89.0139 171.299 90.5354 177.37 88.5067C189.006 74.813 207.725 81.9134 211.266 93.0712C219.867 96.1143 213.796 113.358 204.689 108.794C200.041 115.362 196.533 116.374 190.018 117.416C180.816 124.936 183.947 131.616 186.982 131.109C190.018 130.602 197.607 132.631 198.618 136.688C207.725 137.702 202.16 143.281 214.808 141.76C223.914 136.688 232.008 141.253 254.268 141.76C279.93 145.77 286.141 154.946 286.647 156.468C279.564 158.497 282.57 151.903 263.881 153.932C275.25 160.961 276.023 166.611 269.952 161.54C262.161 158.611 256.798 151.903 251.233 149.875C243.138 148.353 238.526 154.368 230.491 155.454C225.097 157.09 221.819 156.768 215.819 155.454C208.428 158.763 203.037 158.701 192.042 156.468C190.821 159.281 190.043 160.855 186.477 163.568C187.6 165.728 188.007 166.688 188.5 168.133C200.642 165.09 209.243 165.09 219.361 167.626C223.408 165.09 257.304 168.64 257.81 174.726C262.869 174.219 261.351 191.97 257.81 193.492C260.773 194.053 262.435 193.986 265.398 193.492C284.623 186.898 301.318 187.405 333.696 187.405C355.45 182.334 363.478 179.182 375.181 183.348C375.89 187.485 376.6 189.95 375.181 192.984C367.312 199.755 357.796 200.794 334.202 199.07C312.617 203.397 293.223 202.114 283.105 204.649C272.481 208.707 263.321 210.38 259.328 208.707C255.28 212.764 251.367 212.749 241.621 212.257C242.015 214.813 244.278 219.012 239.597 220.879C241.556 224.5 241.307 225.859 238.079 227.979C238.97 229.59 232.874 240.245 229.985 240.152C226.841 245.004 224.834 247.605 220.373 251.816C219.186 257.124 216.094 258.775 208.231 260.438C204.614 266.977 202.81 267.895 199.63 269.06C199.487 277.144 194.205 278.001 186.477 280.725C205.195 301.52 188.5 328.907 183.441 366.438C192.548 371.509 190.018 381.653 179.394 384.696C179.071 394.353 179.187 399.266 179.394 408.026C178 411.859 176.328 411.553 172.817 409.547C167.965 393.052 161.332 386.108 168.77 362.38C176.258 325.652 175.992 311.861 172.817 291.376L160.675 292.39C161.172 295.572 159.157 294.926 147.016 290.869C146.211 296.563 143.98 293.405 136.392 289.855C133.356 291.376 128.803 291.376 128.297 286.811C126.273 288.84 122.226 286.811 123.744 284.276L126.779 274.639C123.931 275.781 123.843 273.695 122.226 272.611C120.609 271.526 127.998 259.516 133.862 246.238C132.845 237.973 149.039 216.314 153.086 213.271C133.356 186.898 134.368 153.932 146.004 141.76Z" fill="url(#paint3_linear_12_65)"/>
<defs>
<linearGradient id="paint0_linear_12_65" x1="188.5" y1="86" x2="188.5" y2="411" gradientUnits="userSpaceOnUse">
<stop stop-color="#7F167F"/>
<stop offset="1" stop-color="#7F167F" stop-opacity="0"/>
</linearGradient>
<linearGradient id="paint1_linear_12_65" x1="188.5" y1="0" x2="188.5" y2="377" gradientUnits="userSpaceOnUse">
<stop stop-color="#460C68"/>
<stop offset="1" stop-color="#460C68" stop-opacity="0"/>
</linearGradient>
<linearGradient id="paint2_linear_12_65" x1="188.5" y1="86" x2="188.5" y2="411" gradientUnits="userSpaceOnUse">
<stop stop-color="#7F167F"/>
<stop offset="1" stop-color="#7F167F" stop-opacity="0"/>
</linearGradient>
<linearGradient id="paint3_linear_12_65" x1="131" y1="24.5" x2="449" y2="560.5" gradientUnits="userSpaceOnUse">
<stop stop-color="#CB1C8D"/>
<stop offset="1" stop-color="#CB1C8D" stop-opacity="0"/>
</linearGradient>
</defs>
</svg>
