<svg width="257" height="257" viewBox="0 0 257 257" fill="none" xmlns="http://www.w3.org/2000/svg">
<path opacity="0.2" fill-rule="evenodd" clip-rule="evenodd" d="M129.65 239.994C190.7 239.377 240 189.696 240 128.5C240 66.9202 190.08 17 128.5 17C66.9202 17 17 66.9202 17 128.5C17 190.08 66.9202 240 128.5 240C128.634 240 128.769 240 128.903 239.999C127.326 239.525 125.151 236.223 123.314 230.496C123.075 229.748 122.946 228.967 122.894 228.183C122.884 228.019 122.873 227.858 122.862 227.698C122.631 224.269 122.473 221.908 124.465 215.864C125.786 209.792 126.13 205.81 126.529 201.197C126.834 197.671 127.17 193.777 127.999 188.297C128.288 186.384 127.973 184.441 127.475 182.571C127.136 181.296 127 180.188 126.854 179.012C126.753 178.189 126.647 177.334 126.465 176.364C125.69 172.229 125.048 170.498 124.402 168.755C123.826 167.203 123.247 165.641 122.567 162.36C122.499 162.033 122.46 161.695 122.448 161.361C122.365 158.896 122.319 157.041 122.337 155.074C122.355 153.189 120.352 151.856 118.892 153.049C118.296 153.535 118.024 154.312 118.048 155.081C118.052 155.184 118.054 155.285 118.055 155.385C118.073 156.834 116.931 157.982 115.537 158.375C112.956 159.103 112.635 160.141 111.838 162.721C111.609 163.464 111.339 164.335 110.965 165.364C110.206 167.263 110.023 167.142 109.103 166.537C108.982 166.457 108.847 166.368 108.697 166.275C108.235 165.987 107.468 165.977 106.923 165.975C106.706 165.974 106.492 165.968 106.282 165.963C105.132 165.932 104.089 165.904 103.214 166.705C102.912 166.981 102.696 167.073 102.444 166.96C102.253 166.874 102.054 166.791 101.851 166.706C100.762 166.249 99.5808 165.753 99.1823 164.702C99.1558 164.632 99.1295 164.558 99.1024 164.479C98.8752 163.821 98.3366 163.435 97.7809 163.037C97.457 162.805 97.1273 162.568 96.8501 162.272C96.5649 161.966 96.6884 161.472 96.9655 160.364C97.5983 158.79 98.0015 157.753 98.5826 155.452C98.8473 154.404 99.2553 153.394 99.821 152.472C102.106 148.75 103.687 146.106 106.677 140.415C106.869 140.049 107.114 139.671 107.367 139.345C109.612 136.453 109.481 132.349 106.887 129.766C102.546 125.44 99.07 121.932 94.1205 115.406C93.3529 114.393 92.7878 113.227 92.4939 111.991C91.5823 108.158 91.802 107.353 92.192 105.924C92.4329 105.042 92.7388 103.921 92.8831 101.701C93.0031 99.8539 92.4395 98.0323 91.5075 96.4335C87.7439 89.9774 86.7007 86.543 85.1871 81.5595C84.1609 78.181 82.9184 74.0905 80.4655 67.8637C78.5894 63.6426 77.9232 60.9613 77.332 58.5818C76.8772 56.7511 76.4667 55.0991 75.5839 53.0619C74.7028 51.0289 72.5677 50.0452 70.396 49.6062C69.8307 49.4919 69.4139 49.3489 68.97 49.1966C68.258 48.9523 67.4765 48.6841 65.9014 48.4725C65.8116 48.4604 65.7194 48.4513 65.6297 48.4425C65.191 48.3994 64.8129 48.3623 65.0806 48.0093C65.2106 47.8378 65.3641 47.6572 65.5142 47.4806C66.0487 46.8517 66.5401 46.2735 65.7761 46.3366C65.4398 46.3644 65.0863 46.434 64.6807 46.5139C64.0607 46.6361 63.3192 46.7822 62.3319 46.8392C61.7773 46.8713 61.0452 46.7096 61.0016 46.1559C60.9856 45.9528 61.092 45.7529 61.3185 45.5111C61.4092 45.4143 61.5387 45.369 61.6713 45.3727C62.194 45.3872 62.0679 44.8597 61.6446 44.5528C61.5716 44.4999 61.5122 44.4375 61.4655 44.3637C61.425 44.2998 61.3961 44.2406 61.3817 44.1867C61.0779 43.0438 63.8895 42.8731 64.9655 43.3637C65.4179 43.6223 65.9919 43.6397 66.6279 43.6353C68.1803 43.6247 69.5663 44.4143 70.9034 45.2032C72.0256 45.8654 73.262 46.5058 73.7502 46.7547C73.895 46.8286 74.0429 46.9071 74.1842 46.9873C78.7806 49.5977 79.2729 50.7053 81.0215 54.6397C82.1541 57.1882 83.8139 60.9226 87.4575 67.0196C87.7885 67.5735 88.0834 68.1822 88.3015 68.7894C89.9051 73.2549 90.512 75.6587 90.9467 77.3803C91.6885 80.3184 91.9287 81.2699 95.765 87.0905C97.5735 89.8344 100.007 90.5453 100.524 87.2999C100.79 85.6266 100.406 83.0972 99.2984 81.815C97.8199 80.1034 96.9059 79.3875 95.7066 78.4483L95.7051 78.4471C95.2268 78.0725 94.7687 77.4695 95.0923 76.9553C95.2351 76.7285 95.484 76.4978 95.8845 76.2262C96.2144 76.0024 96.3191 75.2758 96.3789 74.8606L96.3844 74.822C96.4725 74.2132 96.5584 74.0456 96.8538 73.506C96.9513 73.3277 97.0879 73.1328 97.2291 72.9312C97.4701 72.587 97.7246 72.2235 97.8222 71.8906C97.8828 71.6839 98.0538 71.5583 98.367 71.482C99.3008 71.2544 101.218 70.2905 102.008 69.7421C102.24 69.5804 102.46 69.2041 102.487 68.922C102.559 68.1748 102.813 67.5433 103.35 66.7674C104.019 65.8006 105.041 65.1058 106.203 64.9309C112.343 64.0073 119.803 68.7896 120.857 74.1266C121.072 75.2135 121.416 76.3146 122.2 77.098C122.249 77.1477 122.303 77.1951 122.356 77.2424C122.491 77.3635 122.627 77.4846 122.707 77.6455C123.494 79.2301 120.396 84.8637 119.465 84.8637H118.644C117.233 84.8637 115.889 85.3811 114.696 86.1343C113.567 86.847 112.668 87.1981 111.48 87.6621L111.48 87.6622L111.391 87.6968C111.133 87.7977 110.984 88.0827 110.887 88.3423C110.75 88.707 110.673 89.1079 110.934 89.3968C111.131 89.6148 111.297 89.7891 111.447 89.939C111.989 90.4825 112.886 90.4149 113.434 89.8774C116.688 86.6898 119.115 85.6002 121.9 84.3498C126.007 82.5055 130.894 80.3115 140.36 70.5199C141.089 69.7662 141.94 69.1102 142.851 68.5918C146.981 66.2414 150.157 63.9893 152.934 62.02C156.887 59.2174 160.031 56.9878 163.965 55.8637C166.698 55.4084 171.848 54.7874 176.964 54.4533C177.959 54.3883 180.301 54.3034 179.583 54.9958C179.398 55.1743 178.901 55.4164 178.09 55.8106C177.766 55.9687 177.391 56.1511 176.966 56.3637C176.309 56.6922 177.38 56.7841 178.51 56.881C178.698 56.8971 178.887 56.9133 179.071 56.9308C180.099 57.0289 180.265 58.0088 179.247 58.184C177.88 58.4192 175.685 58.1561 174.386 57.5516C173.84 57.2978 172.732 57.599 172.275 57.9906C171.66 58.5185 172.117 59.3363 172.836 59.7118C173.176 59.889 173.478 60.0655 173.818 60.2733C173.916 60.3331 174.008 60.4043 174.085 60.489C175.364 61.8913 173.646 62.3495 172.966 61.8637C171.468 60.7937 170.244 60.3649 169.061 60.1459C165.876 59.557 162.435 60.5386 160.049 62.7272C159.067 63.6276 158.164 64.494 157.278 65.3452C154.065 68.4302 151.058 71.3169 145.22 74.9056C144.721 75.212 144.241 75.558 143.802 75.9449C140.045 79.2548 137.204 82.1287 134.421 84.9431C131.376 88.0222 128.402 91.0301 124.378 94.4599C122.527 96.0373 121.273 98.1944 120.74 100.567C120.37 102.216 119.984 103.541 119.469 104.998C119.149 105.905 118.963 106.857 118.96 107.82C118.956 108.918 118.956 109.923 118.961 111.336C118.964 111.973 119.341 112.524 119.802 112.963C120.303 113.438 120.903 113.844 121.591 113.793C122.151 113.751 122.639 113.705 123.109 113.661C125.184 113.465 126.886 113.304 132.749 113.702C134.205 113.801 135.689 113.625 136.98 112.944C137.867 112.476 138.723 111.956 139.541 111.459C139.893 111.245 140.237 111.036 140.574 110.836C141.536 110.268 142.575 109.762 143.622 109.253C145.378 108.397 147.153 107.533 148.608 106.35C151.783 103.771 154.729 101.717 158.459 101.074C160.087 100.793 161.704 100.408 163.189 99.6833C164.605 98.9923 165.545 98.7939 165.869 99.8637C167.207 100.006 167.956 100.124 167.968 102.1C167.969 102.267 168.068 102.464 168.18 102.589C168.231 102.645 168.291 102.713 168.357 102.789C168.87 103.377 169.798 104.439 170.376 104.328C174.14 103.612 176.923 102.91 181.25 100.961C181.392 100.897 181.546 100.841 181.697 100.8C187.961 99.0892 191.97 98.6923 195.668 98.326C200.41 97.8564 204.642 97.4372 212.466 94.3637C214.467 93.2515 216.012 91.6845 217.753 89.9175C219.927 87.7127 222.407 85.1964 226.466 82.8637C228.966 81.4269 232.466 86.3637 228.966 89.8637C228.615 90.1705 228.282 90.4622 227.962 90.7427C225.446 92.9464 223.719 94.4592 220.299 97.1984C219.746 97.6414 219.166 98.0654 218.513 98.3405C217.697 98.684 216.033 99.1757 210.278 100.551C209.412 100.758 208.566 101.08 207.788 101.512C205.751 102.641 203.938 103.695 202.247 104.677C195.968 108.325 191.377 110.992 183.329 112.939C182.104 113.236 180.933 113.735 179.857 114.389C175.982 116.747 172.836 117.832 169.719 118.908C167.24 119.764 164.778 120.613 161.983 122.091C160.176 123.046 159.754 125.266 159.473 127.291C159.381 127.949 159.179 128.507 158.979 129.057C158.793 129.569 158.61 130.074 158.521 130.647C158.46 131.043 158.101 131.379 157.7 131.381C157.275 131.384 157.032 131.733 156.921 132.143C156.83 132.481 156.552 132.466 155.7 132.418C155.432 132.404 155.107 132.386 154.714 132.374C154.223 132.36 153.733 132.486 153.305 132.727C151.413 133.792 150.991 134.27 150.568 134.748C149.963 135.433 149.359 136.117 144.443 138.521C141.37 140.024 139.144 142.917 138.85 146.325C138.492 150.476 138.453 153.907 138.414 157.333C138.357 162.252 138.301 167.157 137.302 174.156C137.094 175.607 137.189 177.093 137.543 178.516C139.743 187.387 138.993 194.226 132.53 212.836C131.848 214.8 131.908 216.902 133.192 218.538C133.323 218.705 133.455 218.872 133.586 219.037L133.675 219.15C134.553 220.259 135.221 221.718 134.414 222.88C134.03 223.432 133.5 223.959 132.951 224.505C131.628 225.819 130.2 227.238 130.465 229.364C131.586 236.087 130.999 239.495 129.65 239.994Z" fill="#C85AED"/>
<path d="M130 239.639C190.888 238.836 240 189.228 240 128.149C240 112.851 236.919 98.2723 231.344 85L230.407 85.6076C230.565 86.8588 230.203 88.2755 228.966 89.5126C228.615 89.8194 228.282 90.1111 227.962 90.3915C225.446 92.595 223.719 94.1083 220.299 96.8473C219.746 97.2903 219.166 97.7143 218.513 97.9894C217.697 98.3329 216.033 98.8246 210.278 100.2C209.412 100.407 208.566 100.729 207.788 101.161C205.751 102.29 203.938 103.344 202.247 104.326C195.968 107.973 191.377 110.641 183.329 112.588C182.104 112.885 180.933 113.383 179.857 114.038C175.982 116.396 172.836 117.481 169.719 118.557C167.24 119.412 164.778 120.262 161.983 121.739C160.176 122.695 159.754 124.915 159.473 126.939C159.381 127.598 159.179 128.156 158.979 128.706C158.793 129.218 158.61 129.723 158.521 130.296C158.46 130.692 158.101 131.028 157.7 131.03C157.275 131.033 157.032 131.381 156.921 131.792C156.83 132.13 156.552 132.115 155.7 132.067C155.432 132.052 155.107 132.034 154.714 132.023C154.223 132.009 153.733 132.135 153.305 132.376C151.413 133.441 150.991 133.919 150.568 134.397C149.963 135.082 149.359 135.766 144.443 138.17C141.37 139.673 139.144 142.566 138.85 145.974C138.492 150.124 138.453 153.556 138.414 156.982C138.357 161.9 138.301 166.806 137.302 173.804C137.094 175.256 137.189 176.742 137.543 178.165C139.743 187.035 138.993 193.875 132.53 212.485C131.848 214.449 131.908 216.551 133.192 218.187C133.322 218.353 133.454 218.519 133.585 218.685L133.586 218.686L133.675 218.798C134.553 219.908 135.221 221.367 134.414 222.529C134.03 223.081 133.5 223.608 132.951 224.154C131.628 225.467 130.2 226.887 130.465 229.013C131.484 235.121 131.092 238.493 130 239.433V239.639Z" fill="#A91A82"/>
<path d="M231.243 85.1111C214.319 45.0857 174.689 17 128.5 17C66.9202 17 17 66.9202 17 128.5C17 190.08 66.9202 240 128.5 240C128.634 240 128.769 240 128.903 239.999C127.326 239.525 125.151 236.223 123.314 230.496C123.075 229.748 122.946 228.967 122.894 228.183C122.884 228.023 122.873 227.864 122.863 227.708L122.862 227.698C122.631 224.269 122.473 221.908 124.465 215.864C125.786 209.792 126.13 205.81 126.529 201.197C126.834 197.671 127.17 193.776 127.999 188.297C128.288 186.384 127.973 184.441 127.475 182.571C127.136 181.296 127 180.188 126.854 179.012C126.753 178.189 126.647 177.333 126.465 176.364C125.69 172.229 125.048 170.498 124.402 168.755C123.826 167.203 123.247 165.641 122.567 162.36C122.499 162.033 122.46 161.695 122.448 161.361C122.365 158.896 122.319 157.041 122.337 155.074C122.355 153.189 120.352 151.856 118.892 153.049C118.296 153.535 118.024 154.312 118.048 155.081C118.052 155.184 118.054 155.285 118.055 155.385C118.073 156.834 116.931 157.982 115.537 158.375C112.956 159.103 112.635 160.141 111.838 162.721C111.609 163.464 111.339 164.335 110.965 165.364C110.206 167.263 110.023 167.142 109.103 166.537C108.982 166.457 108.847 166.368 108.697 166.275C108.235 165.987 107.468 165.977 106.923 165.975C106.706 165.974 106.492 165.968 106.282 165.963C105.132 165.932 104.089 165.904 103.214 166.705C102.912 166.981 102.696 167.073 102.444 166.96C102.253 166.875 102.054 166.791 101.852 166.706C100.762 166.249 99.5808 165.753 99.1823 164.702C99.1558 164.632 99.1295 164.558 99.1024 164.479C98.8752 163.821 98.3366 163.435 97.7809 163.037C97.457 162.805 97.1273 162.568 96.8501 162.272C96.5649 161.966 96.6884 161.472 96.9655 160.364C97.5983 158.79 98.0015 157.753 98.5826 155.452C98.8473 154.404 99.2553 153.394 99.821 152.472C102.106 148.75 103.687 146.106 106.677 140.415C106.869 140.049 107.114 139.671 107.367 139.345C109.612 136.453 109.481 132.349 106.887 129.766C102.546 125.44 99.07 121.932 94.1205 115.406C93.3529 114.393 92.7878 113.227 92.4939 111.991C91.5823 108.158 91.802 107.353 92.192 105.924C92.4329 105.042 92.7388 103.921 92.8831 101.701C93.0031 99.8539 92.4395 98.0323 91.5075 96.4335C87.7439 89.9774 86.7008 86.5431 85.1871 81.5596C84.1609 78.1811 82.9184 74.0904 80.4655 67.8637C78.5894 63.6426 77.9232 60.9613 77.332 58.5818C76.8772 56.7511 76.4667 55.0991 75.5839 53.0619C74.7028 51.0289 72.5677 50.0452 70.396 49.6062C69.8307 49.4919 69.4139 49.3489 68.97 49.1966C68.258 48.9523 67.4765 48.6841 65.9014 48.4725C65.8116 48.4604 65.7194 48.4513 65.6297 48.4425C65.191 48.3994 64.8129 48.3623 65.0806 48.0093C65.2106 47.8378 65.3641 47.6572 65.5142 47.4806C66.0487 46.8517 66.5401 46.2735 65.7761 46.3366C65.4398 46.3644 65.0863 46.434 64.6807 46.5139C64.0607 46.6361 63.3192 46.7822 62.3319 46.8392C61.7773 46.8713 61.0452 46.7096 61.0016 46.1559C60.9856 45.9528 61.092 45.7529 61.3185 45.5111C61.4092 45.4143 61.5387 45.369 61.6713 45.3727C62.194 45.3872 62.0679 44.8597 61.6446 44.5528C61.5716 44.4999 61.5122 44.4375 61.4655 44.3637C61.425 44.2998 61.3961 44.2406 61.3817 44.1867C61.0779 43.0438 63.8895 42.8731 64.9655 43.3637C65.4179 43.6223 65.9919 43.6397 66.6279 43.6353C68.1803 43.6247 69.5663 44.4143 70.9034 45.2032C72.0256 45.8654 73.262 46.5058 73.7502 46.7547C73.895 46.8286 74.0429 46.9071 74.1842 46.9873C78.7806 49.5977 79.2729 50.7053 81.0215 54.6397C82.1541 57.1882 83.8139 60.9226 87.4575 67.0196C87.7885 67.5735 88.0834 68.1822 88.3015 68.7894C89.9051 73.2549 90.512 75.6587 90.9467 77.3803C91.6885 80.3184 91.9287 81.2699 95.765 87.0905C97.5735 89.8344 100.007 90.5453 100.524 87.2999C100.79 85.6266 100.406 83.0972 99.2984 81.815C97.8199 80.1034 96.9059 79.3875 95.7066 78.4483L95.7051 78.4471C95.2268 78.0725 94.7687 77.4695 95.0923 76.9553C95.2351 76.7285 95.484 76.4978 95.8845 76.2262C96.2144 76.0024 96.3191 75.2758 96.3789 74.8606L96.3844 74.822C96.4725 74.2132 96.5584 74.0456 96.8538 73.506C96.9513 73.3277 97.0879 73.1328 97.2291 72.9312C97.4701 72.587 97.7246 72.2235 97.8222 71.8906C97.8828 71.6839 98.0538 71.5583 98.367 71.482C99.3008 71.2544 101.218 70.2905 102.008 69.7421C102.24 69.5804 102.46 69.2041 102.487 68.922C102.559 68.1748 102.813 67.5433 103.35 66.7674C104.019 65.8006 105.041 65.1058 106.203 64.9309C112.343 64.0073 119.803 68.7896 120.857 74.1266C121.072 75.2135 121.416 76.3146 122.2 77.098C122.249 77.1477 122.303 77.1951 122.356 77.2424C122.491 77.3635 122.627 77.4846 122.707 77.6455C123.494 79.2301 120.396 84.8637 119.465 84.8637H118.644C117.233 84.8637 115.889 85.3811 114.696 86.1343C113.567 86.847 112.668 87.198 111.48 87.6621L111.391 87.6968C111.133 87.7977 110.984 88.0827 110.887 88.3423C110.75 88.707 110.673 89.1079 110.934 89.3968C111.131 89.6148 111.297 89.7891 111.447 89.939C111.989 90.4825 112.886 90.4149 113.434 89.8774C116.688 86.6898 119.115 85.6002 121.9 84.3498C126.007 82.5055 130.894 80.3115 140.36 70.5199C141.089 69.7662 141.94 69.1102 142.851 68.5918C146.981 66.2414 150.157 63.9893 152.934 62.02C156.887 59.2174 160.031 56.9878 163.965 55.8637C166.698 55.4084 171.848 54.7874 176.964 54.4533C177.959 54.3883 180.301 54.3034 179.583 54.9958C179.398 55.1743 178.901 55.4164 178.091 55.8106L178.089 55.8112C177.765 55.9691 177.39 56.1514 176.966 56.3637C176.309 56.6922 177.38 56.7841 178.51 56.881C178.698 56.8971 178.887 56.9133 179.071 56.9308C180.099 57.0289 180.265 58.0088 179.247 58.184C177.88 58.4192 175.685 58.1561 174.386 57.5516C173.84 57.2978 172.732 57.599 172.275 57.9906C171.66 58.5185 172.117 59.3363 172.836 59.7118C173.176 59.889 173.478 60.0655 173.818 60.2733C173.916 60.3331 174.008 60.4043 174.085 60.489C175.364 61.8913 173.646 62.3495 172.966 61.8637C171.468 60.7937 170.244 60.3649 169.061 60.1459C165.876 59.557 162.435 60.5386 160.049 62.7272C159.067 63.6276 158.164 64.494 157.278 65.3452C154.065 68.4302 151.058 71.3169 145.22 74.9056C144.721 75.212 144.241 75.558 143.802 75.9449C140.046 79.2547 137.204 82.1286 134.421 84.943C131.376 88.0221 128.402 91.0301 124.378 94.4599C122.527 96.0373 121.273 98.1944 120.74 100.567C120.37 102.216 119.984 103.541 119.469 104.998C119.149 105.905 118.963 106.857 118.96 107.82C118.956 108.918 118.956 109.923 118.961 111.336C118.964 111.973 119.341 112.524 119.802 112.963C120.303 113.438 120.903 113.844 121.591 113.793C122.151 113.751 122.639 113.705 123.109 113.661C125.184 113.465 126.886 113.304 132.749 113.702C134.205 113.801 135.689 113.625 136.98 112.944C137.867 112.476 138.723 111.956 139.541 111.459C139.893 111.245 140.237 111.036 140.574 110.836C141.536 110.268 142.575 109.762 143.621 109.253C145.378 108.397 147.153 107.533 148.608 106.35C151.783 103.771 154.729 101.717 158.459 101.074C160.087 100.793 161.704 100.408 163.189 99.6833C164.605 98.9923 165.545 98.7939 165.869 99.8637C167.207 100.006 167.956 100.124 167.968 102.1C167.969 102.267 168.068 102.464 168.18 102.589C168.231 102.645 168.291 102.713 168.357 102.789C168.87 103.377 169.798 104.439 170.376 104.328C174.14 103.612 176.923 102.91 181.25 100.961C181.392 100.897 181.546 100.841 181.697 100.8C187.961 99.0892 191.97 98.6923 195.668 98.326C200.41 97.8564 204.642 97.4372 212.466 94.3637C214.467 93.2515 216.012 91.6845 217.753 89.9175C219.927 87.7127 222.407 85.1964 226.466 82.8637C228.034 81.9625 229.995 83.569 230.376 85.7556C230.667 85.5412 230.956 85.3264 231.243 85.1111Z" fill="#F56EB3"/>
<path d="M128.736 17C174.925 17 214.555 45.0857 231.478 85.1111C231.192 85.3264 230.903 85.5412 230.612 85.7556C230.231 83.569 228.269 81.9625 226.701 82.8637C222.642 85.1964 220.162 87.7127 217.989 89.9175C216.248 91.6845 214.703 93.2515 212.701 94.3637C204.878 97.4372 200.645 97.8564 195.904 98.326C192.205 98.6923 188.197 99.0892 181.933 100.8C181.782 100.841 181.628 100.897 181.485 100.961C177.159 102.91 174.375 103.612 170.612 104.328C170.033 104.439 169.106 103.377 168.592 102.789C168.526 102.713 168.467 102.645 168.416 102.589C168.304 102.464 168.205 102.267 168.204 102.1C168.192 100.124 167.442 100.006 166.105 99.8637C165.781 98.7939 164.841 98.9923 163.425 99.6833C161.939 100.408 160.323 100.793 158.695 101.074C154.964 101.717 152.018 103.771 148.844 106.35C147.389 107.533 145.613 108.397 143.857 109.253C142.811 109.762 141.771 110.268 140.81 110.836C140.473 111.035 140.129 111.245 139.777 111.458C138.96 111.956 138.103 112.476 137.216 112.944C135.924 113.625 134.441 113.801 132.984 113.702C127.121 113.304 125.419 113.465 123.344 113.661C122.875 113.705 122.386 113.751 121.826 113.793C121.138 113.844 120.538 113.438 120.038 112.963C119.577 112.524 119.199 111.973 119.197 111.336C119.192 109.923 119.192 108.918 119.195 107.82C119.198 106.857 119.384 105.905 119.705 104.998C120.22 103.541 120.606 102.216 120.976 100.567C121.509 98.1944 122.763 96.0373 124.613 94.4599C128.638 91.0301 131.612 88.0221 134.657 84.943C137.439 82.1286 140.281 79.2547 144.037 75.9449C144.476 75.558 144.957 75.212 145.456 74.9056C151.294 71.3169 154.3 68.4302 157.513 65.3452C158.4 64.494 159.302 63.6276 160.284 62.7272C162.671 60.5386 166.112 59.557 169.296 60.1459C170.48 60.3649 171.703 60.7937 173.201 61.8637C173.881 62.3495 175.6 61.8913 174.321 60.489C174.244 60.4043 174.152 60.3331 174.054 60.2733C173.714 60.0655 173.411 59.889 173.072 59.7118C172.353 59.3363 171.895 58.5185 172.511 57.9906C172.967 57.599 174.076 57.2978 174.621 57.5516C175.92 58.1561 178.116 58.4192 179.482 58.184C180.501 58.0088 180.334 57.0289 179.306 56.9308C179.123 56.9133 178.934 56.8971 178.746 56.881C177.616 56.7841 176.544 56.6922 177.201 56.3637C177.625 56.152 177.998 55.9702 178.322 55.8126L178.325 55.8112L178.326 55.8106C179.136 55.4165 179.634 55.1742 179.819 54.9958C180.537 54.3034 178.195 54.3883 177.199 54.4533C172.083 54.7874 166.933 55.4084 164.201 55.8637C160.267 56.9878 157.122 59.2174 153.17 62.02C150.392 63.9893 147.216 66.2414 143.087 68.5918C142.175 69.1102 141.324 69.7662 140.596 70.5199C131.13 80.3115 126.243 82.5055 122.135 84.3498C119.35 85.6002 116.923 86.6898 113.67 89.8774C113.121 90.4149 112.225 90.4825 111.682 89.939C111.533 89.7891 111.367 89.6148 111.17 89.3968C110.909 89.1079 110.986 88.707 111.122 88.3423C111.219 88.0827 111.368 87.7977 111.627 87.6968L111.715 87.6621C112.904 87.198 113.802 86.847 114.932 86.1343C116.125 85.3811 117.469 84.8637 118.88 84.8637H119.701C120.632 84.8637 123.73 79.2301 122.943 77.6455C122.863 77.4846 122.727 77.3635 122.591 77.2424C122.538 77.1951 122.485 77.1477 122.435 77.098C121.652 76.3146 121.308 75.2135 121.093 74.1266C120.039 68.7896 112.578 64.0073 106.439 64.9309C105.276 65.1058 104.254 65.8006 103.585 66.7674C103.048 67.5433 102.795 68.1748 102.723 68.922C102.696 69.2041 102.476 69.5804 102.243 69.7421C101.454 70.2905 99.5364 71.2544 98.6026 71.482C98.2894 71.5583 98.1184 71.6839 98.0578 71.8906C97.9602 72.2235 97.7057 72.587 97.4647 72.9312C97.3235 73.1328 97.187 73.3277 97.0894 73.506C96.794 74.0456 96.7081 74.2132 96.62 74.822L96.6145 74.8606C96.5547 75.2758 96.4501 76.0024 96.1201 76.2262C95.7196 76.4978 95.4707 76.7285 95.3279 76.9553C95.0043 77.4695 95.4624 78.0725 95.9408 78.4471L95.9422 78.4483C97.1415 79.3875 98.0555 80.1034 99.534 81.815C100.642 83.0972 101.026 85.6266 100.759 87.2999C100.243 90.5453 97.8091 89.8344 96.0006 87.0905C92.1643 81.2699 91.9241 80.3184 91.1823 77.3803C90.7476 75.6587 90.1407 73.2549 88.5371 68.7894C88.319 68.1822 88.0241 67.5735 87.6931 67.0196C84.0495 60.9226 82.3898 57.1882 81.2571 54.6397C79.5085 50.7053 79.0162 49.5977 74.4198 46.9873C74.2785 46.9071 74.1306 46.8286 73.9859 46.7547C73.4976 46.5058 72.2612 45.8654 71.139 45.2032C69.802 44.4143 68.4159 43.6247 66.8636 43.6353C66.2275 43.6397 65.6535 43.6223 65.2011 43.3637C64.2735 42.9408 62.0561 43.0093 61.6567 43.7684L58 42.3058C77.2462 26.4928 101.882 17 128.736 17Z" fill="#CB1C8D"/>
<path d="M257 128.5C257 199.469 199.469 257 128.5 257C57.5314 257 0 199.469 0 128.5C0 57.5314 57.5314 0 128.5 0C199.469 0 257 57.5314 257 128.5ZM10.2598 128.5C10.2598 193.802 63.1978 246.74 128.5 246.74C193.802 246.74 246.74 193.802 246.74 128.5C246.74 63.1978 193.802 10.2598 128.5 10.2598C63.1978 10.2598 10.2598 63.1978 10.2598 128.5Z" fill="#561845"/>
</svg>
