<svg width="223" height="223" viewBox="0 0 223 223" fill="none" xmlns="http://www.w3.org/2000/svg">
<circle cx="112" cy="111" r="111" fill="#181818"/>
<path opacity="0.2" fill-rule="evenodd" clip-rule="evenodd" d="M112.65 222.994C173.7 222.377 223 172.696 223 111.5C223 49.9202 173.08 0 111.5 0C49.9202 0 0 49.9202 0 111.5C0 173.08 49.9202 223 111.5 223C111.634 223 111.769 223 111.903 222.999C110.326 222.525 108.151 219.223 106.314 213.496C106.075 212.748 105.946 211.967 105.894 211.183C105.884 211.019 105.873 210.858 105.862 210.698C105.631 207.269 105.473 204.908 107.465 198.864C108.786 192.792 109.13 188.81 109.529 184.197C109.834 180.671 110.17 176.777 110.999 171.297C111.288 169.384 110.973 167.441 110.475 165.571C110.136 164.296 110 163.188 109.854 162.012C109.753 161.189 109.647 160.334 109.465 159.364C108.69 155.229 108.048 153.498 107.402 151.755C106.826 150.203 106.247 148.641 105.567 145.36C105.499 145.033 105.46 144.695 105.448 144.361C105.365 141.896 105.319 140.041 105.337 138.074C105.355 136.189 103.352 134.856 101.892 136.049C101.296 136.535 101.024 137.312 101.048 138.081C101.052 138.184 101.054 138.285 101.055 138.385C101.073 139.834 99.9307 140.982 98.5366 141.375C95.9559 142.103 95.6352 143.141 94.8381 145.721C94.6086 146.464 94.3395 147.335 93.9655 148.364C93.206 150.263 93.0233 150.142 92.1031 149.537C91.9817 149.457 91.8474 149.368 91.6973 149.275C91.2348 148.987 90.468 148.977 89.9235 148.975C89.7063 148.974 89.4923 148.968 89.2819 148.963C88.1324 148.932 87.0886 148.904 86.2138 149.705C85.9121 149.981 85.6955 150.073 85.4435 149.96C85.253 149.874 85.0538 149.791 84.8514 149.706C83.7618 149.249 82.5808 148.753 82.1823 147.702C82.1558 147.632 82.1295 147.558 82.1024 147.479C81.8752 146.821 81.3366 146.435 80.7809 146.037C80.457 145.805 80.1273 145.568 79.8501 145.272C79.5649 144.966 79.6884 144.472 79.9655 143.364C80.5983 141.79 81.0015 140.753 81.5826 138.452C81.8473 137.404 82.2553 136.394 82.821 135.472C85.1065 131.75 86.6874 129.106 89.6766 123.415C89.8687 123.049 90.1142 122.671 90.3674 122.345C92.6118 119.453 92.4809 115.349 89.8874 112.766C85.546 108.44 82.07 104.932 77.1205 98.4056C76.3529 97.3935 75.7878 96.2269 75.4939 94.9912C74.5823 91.1583 74.802 90.3533 75.192 88.9244C75.4329 88.0417 75.7388 86.9208 75.8831 84.7006C76.0031 82.8539 75.4395 81.0323 74.5075 79.4335C70.7439 72.9774 69.7007 69.543 68.1871 64.5595C67.1609 61.181 65.9184 57.0905 63.4655 50.8637C61.5894 46.6426 60.9232 43.9613 60.332 41.5818C59.8772 39.7511 59.4667 38.0991 58.5839 36.0619C57.7028 34.0289 55.5677 33.0452 53.396 32.6062C52.8307 32.4919 52.4139 32.3489 51.97 32.1966C51.258 31.9523 50.4765 31.6841 48.9014 31.4725C48.8116 31.4604 48.7194 31.4513 48.6297 31.4425C48.191 31.3994 47.8129 31.3623 48.0806 31.0093C48.2106 30.8378 48.3641 30.6572 48.5142 30.4806C49.0487 29.8517 49.5401 29.2735 48.7761 29.3366C48.4398 29.3644 48.0863 29.434 47.6807 29.5139C47.0607 29.6361 46.3192 29.7822 45.3319 29.8392C44.7773 29.8713 44.0452 29.7096 44.0016 29.1559C43.9856 28.9528 44.092 28.7529 44.3185 28.5111C44.4092 28.4143 44.5387 28.369 44.6713 28.3727C45.194 28.3872 45.0679 27.8597 44.6446 27.5528C44.5716 27.4999 44.5122 27.4375 44.4655 27.3637C44.425 27.2998 44.3961 27.2406 44.3817 27.1867C44.0779 26.0438 46.8895 25.8731 47.9655 26.3637C48.4179 26.6223 48.9919 26.6397 49.6279 26.6353C51.1803 26.6247 52.5663 27.4143 53.9034 28.2032C55.0256 28.8654 56.262 29.5058 56.7502 29.7547C56.895 29.8286 57.0429 29.9071 57.1842 29.9873C61.7806 32.5977 62.2729 33.7053 64.0215 37.6397C65.1541 40.1882 66.8139 43.9226 70.4575 50.0196C70.7885 50.5735 71.0834 51.1822 71.3015 51.7894C72.9051 56.2549 73.512 58.6587 73.9467 60.3803C74.6885 63.3184 74.9287 64.2699 78.765 70.0905C80.5735 72.8344 83.007 73.5453 83.5238 70.2999C83.7902 68.6266 83.406 66.0972 82.2984 64.815C80.8199 63.1034 79.9059 62.3875 78.7066 61.4483L78.7051 61.4471C78.2268 61.0725 77.7687 60.4695 78.0923 59.9553C78.2351 59.7285 78.484 59.4978 78.8845 59.2262C79.2144 59.0024 79.3191 58.2758 79.3789 57.8606L79.3844 57.822C79.4725 57.2132 79.5584 57.0456 79.8538 56.506C79.9513 56.3277 80.0879 56.1328 80.2291 55.9312C80.4701 55.587 80.7246 55.2235 80.8222 54.8906C80.8828 54.6839 81.0538 54.5583 81.367 54.482C82.3008 54.2544 84.2184 53.2905 85.0077 52.7421C85.2404 52.5804 85.4603 52.2041 85.4874 51.922C85.5591 51.1748 85.8128 50.5433 86.3498 49.7674C87.0189 48.8006 88.0405 48.1058 89.2032 47.9309C95.3429 47.0073 102.803 51.7896 103.857 57.1266C104.072 58.2135 104.416 59.3146 105.2 60.098C105.249 60.1477 105.303 60.1951 105.356 60.2424C105.491 60.3635 105.627 60.4846 105.707 60.6455C106.494 62.2301 103.396 67.8637 102.465 67.8637H101.644C100.233 67.8637 98.8894 68.3811 97.696 69.1343C96.5667 69.847 95.6679 70.1981 94.4797 70.6621L94.4797 70.6622L94.391 70.6968C94.1329 70.7977 93.9839 71.0827 93.8868 71.3423C93.7505 71.707 93.6734 72.1079 93.9344 72.3968C94.1314 72.6148 94.297 72.7891 94.4466 72.939C94.9892 73.4825 95.8857 73.4149 96.4342 72.8774C99.6877 69.6898 102.115 68.6002 104.9 67.3498C109.007 65.5055 113.894 63.3115 123.36 53.5199C124.089 52.7662 124.94 52.1102 125.851 51.5918C129.981 49.2414 133.157 46.9893 135.934 45.02C139.887 42.2174 143.031 39.9878 146.965 38.8637C149.698 38.4084 154.848 37.7874 159.964 37.4533C160.959 37.3883 163.301 37.3034 162.583 37.9958C162.398 38.1743 161.901 38.4164 161.09 38.8106C160.766 38.9687 160.391 39.1511 159.966 39.3637C159.309 39.6922 160.38 39.7841 161.51 39.881C161.698 39.8971 161.887 39.9133 162.071 39.9308C163.099 40.0289 163.265 41.0088 162.247 41.184C160.88 41.4192 158.685 41.1561 157.386 40.5516C156.84 40.2978 155.732 40.599 155.275 40.9906C154.66 41.5185 155.117 42.3363 155.836 42.7118C156.176 42.889 156.478 43.0655 156.818 43.2733C156.916 43.3331 157.008 43.4043 157.085 43.489C158.364 44.8913 156.646 45.3495 155.966 44.8637C154.468 43.7937 153.244 43.3649 152.061 43.1459C148.876 42.557 145.435 43.5386 143.049 45.7272C142.067 46.6276 141.164 47.494 140.278 48.3452C137.065 51.4302 134.058 54.3169 128.22 57.9056C127.721 58.212 127.241 58.558 126.802 58.9449C123.045 62.2548 120.204 65.1287 117.421 67.9431C114.376 71.0222 111.402 74.0301 107.378 77.4599C105.527 79.0373 104.273 81.1944 103.74 83.5671C103.37 85.2156 102.984 86.5408 102.469 87.9975C102.149 88.9053 101.963 89.857 101.96 90.8198C101.956 91.9179 101.956 92.9228 101.961 94.3358C101.964 94.9727 102.341 95.5239 102.802 95.9629C103.303 96.4385 103.903 96.8442 104.591 96.7929C105.151 96.751 105.639 96.705 106.109 96.6607C108.184 96.465 109.886 96.3044 115.749 96.7019C117.205 96.8007 118.689 96.6247 119.98 95.9441C120.867 95.4763 121.723 94.9561 122.541 94.4589C122.893 94.2451 123.237 94.0356 123.574 93.8363C124.536 93.268 125.575 92.7619 126.622 92.2525C128.378 91.3973 130.153 90.5331 131.608 89.3503C134.783 86.7709 137.729 84.7169 141.459 84.074C143.087 83.7933 144.704 83.408 146.189 82.6833C147.605 81.9923 148.545 81.7939 148.869 82.8637C150.207 83.0064 150.956 83.1238 150.968 85.0996C150.969 85.2674 151.068 85.464 151.18 85.5889C151.231 85.6454 151.291 85.7133 151.357 85.7891C151.87 86.3768 152.798 87.4386 153.376 87.3284C157.14 86.6119 159.923 85.9098 164.25 83.9614C164.392 83.8972 164.546 83.8413 164.697 83.8002C170.961 82.0892 174.97 81.6923 178.668 81.326C183.41 80.8564 187.642 80.4372 195.466 77.3637C197.467 76.2515 199.012 74.6845 200.753 72.9175C202.927 70.7127 205.407 68.1964 209.466 65.8637C211.966 64.4269 215.466 69.3637 211.966 72.8637C211.615 73.1705 211.282 73.4622 210.962 73.7427C208.446 75.9464 206.719 77.4592 203.299 80.1984C202.746 80.6414 202.166 81.0654 201.513 81.3405C200.697 81.684 199.033 82.1757 193.278 83.5515C192.412 83.7585 191.566 84.0797 190.788 84.5116C188.751 85.6413 186.938 86.6948 185.247 87.6772C178.968 91.3245 174.377 93.9919 166.329 95.9393C165.104 96.2357 163.933 96.7346 162.857 97.3895C158.982 99.7466 155.836 100.832 152.719 101.908C150.24 102.764 147.778 103.613 144.983 105.091C143.176 106.046 142.754 108.266 142.473 110.291C142.381 110.949 142.179 111.507 141.979 112.057C141.793 112.569 141.61 113.074 141.521 113.647C141.46 114.043 141.101 114.379 140.7 114.381C140.275 114.384 140.032 114.733 139.921 115.143C139.83 115.481 139.552 115.466 138.7 115.418C138.432 115.404 138.107 115.386 137.714 115.374C137.223 115.36 136.733 115.486 136.305 115.727C134.413 116.792 133.991 117.27 133.568 117.748C132.963 118.433 132.359 119.117 127.443 121.521C124.37 123.024 122.144 125.917 121.85 129.325C121.492 133.476 121.453 136.907 121.414 140.333C121.357 145.252 121.301 150.157 120.302 157.156C120.094 158.607 120.189 160.093 120.543 161.516C122.743 170.387 121.993 177.226 115.53 195.836C114.848 197.8 114.908 199.902 116.192 201.538C116.323 201.705 116.455 201.872 116.586 202.037L116.675 202.15C117.553 203.259 118.221 204.718 117.414 205.88C117.03 206.432 116.5 206.959 115.951 207.505C114.628 208.819 113.2 210.238 113.465 212.364C114.586 219.087 113.999 222.495 112.65 222.994Z" fill="#C85AED"/>
<path d="M113 222.639C173.888 221.836 223 172.228 223 111.149C223 95.8508 219.919 81.2723 214.344 68L213.407 68.6076C213.565 69.8588 213.203 71.2755 211.966 72.5126C211.615 72.8194 211.282 73.1111 210.962 73.3915C208.446 75.595 206.719 77.1083 203.299 79.8473C202.746 80.2903 202.166 80.7143 201.513 80.9894C200.697 81.3329 199.033 81.8246 193.278 83.2003C192.412 83.4074 191.566 83.7286 190.788 84.1605C188.751 85.2902 186.938 86.3437 185.247 87.3261C178.968 90.9734 174.377 93.6408 166.329 95.5882C165.104 95.8846 163.933 96.3835 162.857 97.0383C158.982 99.3955 155.836 100.481 152.719 101.557C150.24 102.412 147.778 103.262 144.983 104.739C143.176 105.695 142.754 107.915 142.473 109.939C142.381 110.598 142.179 111.156 141.979 111.706C141.793 112.218 141.61 112.723 141.521 113.296C141.46 113.692 141.101 114.028 140.7 114.03C140.275 114.033 140.032 114.381 139.921 114.792C139.83 115.13 139.552 115.115 138.7 115.067C138.432 115.052 138.107 115.034 137.714 115.023C137.223 115.009 136.733 115.135 136.305 115.376C134.413 116.441 133.991 116.919 133.568 117.397C132.963 118.082 132.359 118.766 127.443 121.17C124.37 122.673 122.144 125.566 121.85 128.974C121.492 133.124 121.453 136.556 121.414 139.982C121.357 144.9 121.301 149.806 120.302 156.804C120.094 158.256 120.189 159.742 120.543 161.165C122.743 170.035 121.993 176.875 115.53 195.485C114.848 197.449 114.908 199.551 116.192 201.187C116.322 201.353 116.454 201.519 116.585 201.685L116.586 201.686L116.675 201.798C117.553 202.908 118.221 204.367 117.414 205.529C117.03 206.081 116.5 206.608 115.951 207.154C114.628 208.467 113.2 209.887 113.465 212.013C114.484 218.121 114.092 221.493 113 222.433V222.639Z" fill="#A91A82"/>
<path d="M214.243 68.1111C197.319 28.0857 157.689 0 111.5 0C49.9202 0 0 49.9202 0 111.5C0 173.08 49.9202 223 111.5 223C111.634 223 111.769 223 111.903 222.999C110.326 222.525 108.151 219.223 106.314 213.496C106.075 212.748 105.946 211.967 105.894 211.183C105.884 211.023 105.873 210.864 105.863 210.708L105.862 210.698C105.631 207.269 105.473 204.908 107.465 198.864C108.786 192.792 109.13 188.81 109.529 184.197C109.834 180.671 110.17 176.776 110.999 171.297C111.288 169.384 110.973 167.441 110.475 165.571C110.136 164.296 110 163.188 109.854 162.012C109.753 161.189 109.647 160.333 109.465 159.364C108.69 155.229 108.048 153.498 107.402 151.755C106.826 150.203 106.247 148.641 105.567 145.36C105.499 145.033 105.46 144.695 105.448 144.361C105.365 141.896 105.319 140.041 105.337 138.074C105.355 136.189 103.352 134.856 101.892 136.049C101.296 136.535 101.024 137.312 101.048 138.081C101.052 138.184 101.054 138.285 101.055 138.385C101.073 139.834 99.9307 140.982 98.5366 141.375C95.9559 142.103 95.6352 143.141 94.8381 145.721C94.6086 146.464 94.3394 147.335 93.9655 148.364C93.206 150.263 93.0233 150.142 92.1031 149.537C91.9817 149.457 91.8474 149.368 91.6973 149.275C91.2348 148.987 90.468 148.977 89.9235 148.975C89.7063 148.974 89.4923 148.968 89.2819 148.963C88.1324 148.932 87.0886 148.904 86.2138 149.705C85.9121 149.981 85.6955 150.073 85.4435 149.96C85.2531 149.875 85.0539 149.791 84.8516 149.706C83.762 149.249 82.5808 148.753 82.1823 147.702C82.1558 147.632 82.1295 147.558 82.1024 147.479C81.8752 146.821 81.3366 146.435 80.7809 146.037C80.457 145.805 80.1273 145.568 79.8501 145.272C79.5649 144.966 79.6884 144.472 79.9655 143.364C80.5983 141.79 81.0015 140.753 81.5826 138.452C81.8473 137.404 82.2553 136.394 82.821 135.472C85.1065 131.75 86.6874 129.106 89.6766 123.415C89.8687 123.049 90.1142 122.671 90.3674 122.345C92.6118 119.453 92.4809 115.349 89.8874 112.766C85.546 108.44 82.07 104.932 77.1205 98.4056C76.3529 97.3935 75.7878 96.2269 75.4939 94.9912C74.5823 91.1583 74.802 90.3533 75.192 88.9244C75.4329 88.0417 75.7388 86.9208 75.8831 84.7006C76.0031 82.8539 75.4395 81.0323 74.5075 79.4335C70.7439 72.9774 69.7008 69.5431 68.1871 64.5596C67.1609 61.1811 65.9184 57.0904 63.4655 50.8637C61.5894 46.6426 60.9232 43.9613 60.332 41.5818C59.8772 39.7511 59.4667 38.0991 58.5839 36.0619C57.7028 34.0289 55.5677 33.0452 53.396 32.6062C52.8307 32.4919 52.4139 32.3489 51.97 32.1966C51.258 31.9523 50.4765 31.6841 48.9014 31.4725C48.8116 31.4604 48.7194 31.4513 48.6297 31.4425C48.191 31.3994 47.8129 31.3623 48.0806 31.0093C48.2106 30.8378 48.3641 30.6572 48.5142 30.4806C49.0487 29.8517 49.5401 29.2735 48.7761 29.3366C48.4398 29.3644 48.0863 29.434 47.6807 29.5139C47.0607 29.6361 46.3192 29.7822 45.3319 29.8392C44.7773 29.8713 44.0452 29.7096 44.0016 29.1559C43.9856 28.9528 44.092 28.7529 44.3185 28.5111C44.4092 28.4143 44.5387 28.369 44.6713 28.3727C45.194 28.3872 45.0679 27.8597 44.6446 27.5528C44.5716 27.4999 44.5122 27.4375 44.4655 27.3637C44.425 27.2998 44.3961 27.2406 44.3817 27.1867C44.0779 26.0438 46.8895 25.8731 47.9655 26.3637C48.4179 26.6223 48.9919 26.6397 49.6279 26.6353C51.1803 26.6247 52.5663 27.4143 53.9034 28.2032C55.0256 28.8654 56.262 29.5058 56.7502 29.7547C56.895 29.8286 57.0429 29.9071 57.1842 29.9873C61.7806 32.5977 62.2729 33.7053 64.0215 37.6397C65.1541 40.1882 66.8139 43.9226 70.4575 50.0196C70.7885 50.5735 71.0834 51.1822 71.3015 51.7894C72.9051 56.2549 73.512 58.6587 73.9467 60.3803C74.6885 63.3184 74.9287 64.2699 78.765 70.0905C80.5735 72.8344 83.007 73.5453 83.5238 70.2999C83.7902 68.6266 83.406 66.0972 82.2984 64.815C80.8199 63.1034 79.9059 62.3875 78.7066 61.4483L78.7051 61.4471C78.2268 61.0725 77.7687 60.4695 78.0923 59.9553C78.2351 59.7285 78.484 59.4978 78.8845 59.2262C79.2144 59.0024 79.3191 58.2758 79.3789 57.8606L79.3844 57.822C79.4725 57.2132 79.5584 57.0456 79.8538 56.506C79.9513 56.3277 80.0879 56.1328 80.2291 55.9312C80.4701 55.587 80.7246 55.2235 80.8222 54.8906C80.8828 54.6839 81.0538 54.5583 81.367 54.482C82.3008 54.2544 84.2184 53.2905 85.0077 52.7421C85.2404 52.5804 85.4603 52.2041 85.4874 51.922C85.5591 51.1748 85.8128 50.5433 86.3498 49.7674C87.0189 48.8006 88.0405 48.1058 89.2032 47.9309C95.3429 47.0073 102.803 51.7896 103.857 57.1266C104.072 58.2135 104.416 59.3146 105.2 60.098C105.249 60.1477 105.303 60.1951 105.356 60.2424C105.491 60.3635 105.627 60.4846 105.707 60.6455C106.494 62.2301 103.396 67.8637 102.465 67.8637H101.644C100.233 67.8637 98.8894 68.3811 97.696 69.1343C96.5668 69.847 95.668 70.198 94.4798 70.6621L94.391 70.6968C94.1329 70.7977 93.9839 71.0827 93.8868 71.3423C93.7505 71.707 93.6734 72.1079 93.9344 72.3968C94.1314 72.6148 94.297 72.7891 94.4466 72.939C94.9892 73.4825 95.8857 73.4149 96.4342 72.8774C99.6877 69.6898 102.115 68.6002 104.9 67.3498C109.007 65.5055 113.894 63.3115 123.36 53.5199C124.089 52.7662 124.94 52.1102 125.851 51.5918C129.981 49.2414 133.157 46.9893 135.934 45.02C139.887 42.2174 143.031 39.9878 146.965 38.8637C149.698 38.4084 154.848 37.7874 159.964 37.4533C160.959 37.3883 163.301 37.3034 162.583 37.9958C162.398 38.1743 161.901 38.4164 161.091 38.8106L161.089 38.8112C160.765 38.9691 160.39 39.1514 159.966 39.3637C159.309 39.6922 160.38 39.7841 161.51 39.881C161.698 39.8971 161.887 39.9133 162.071 39.9308C163.099 40.0289 163.265 41.0088 162.247 41.184C160.88 41.4192 158.685 41.1561 157.386 40.5516C156.84 40.2978 155.732 40.599 155.275 40.9906C154.66 41.5185 155.117 42.3363 155.836 42.7118C156.176 42.889 156.478 43.0655 156.818 43.2733C156.916 43.3331 157.008 43.4043 157.085 43.489C158.364 44.8913 156.646 45.3495 155.966 44.8637C154.468 43.7937 153.244 43.3649 152.061 43.1459C148.876 42.557 145.435 43.5386 143.049 45.7272C142.067 46.6276 141.164 47.494 140.278 48.3452C137.065 51.4302 134.058 54.3169 128.22 57.9056C127.721 58.212 127.241 58.558 126.802 58.9449C123.046 62.2547 120.204 65.1286 117.421 67.943C114.376 71.0221 111.402 74.0301 107.378 77.4599C105.527 79.0373 104.273 81.1944 103.74 83.5671C103.37 85.2156 102.984 86.5408 102.469 87.9975C102.149 88.9053 101.963 89.857 101.96 90.8198C101.956 91.9179 101.956 92.9228 101.961 94.3358C101.964 94.9727 102.341 95.5239 102.802 95.9629C103.303 96.4385 103.903 96.8442 104.591 96.7929C105.151 96.751 105.639 96.705 106.109 96.6607C108.184 96.465 109.886 96.3044 115.749 96.7019C117.205 96.8007 118.689 96.6247 119.98 95.9441C120.867 95.4763 121.723 94.9561 122.541 94.4589C122.893 94.2451 123.237 94.0356 123.574 93.8363C124.536 93.268 125.575 92.7619 126.621 92.2526C128.378 91.3974 130.153 90.5331 131.608 89.3503C134.783 86.7709 137.729 84.7169 141.459 84.074C143.087 83.7933 144.704 83.408 146.189 82.6833C147.605 81.9923 148.545 81.7939 148.869 82.8637C150.207 83.0064 150.956 83.1238 150.968 85.0996C150.969 85.2674 151.068 85.464 151.18 85.5889C151.231 85.6454 151.291 85.7133 151.357 85.7891C151.87 86.3768 152.798 87.4386 153.376 87.3284C157.14 86.6119 159.923 85.9098 164.25 83.9614C164.392 83.8972 164.546 83.8413 164.697 83.8002C170.961 82.0892 174.97 81.6923 178.668 81.326C183.41 80.8564 187.642 80.4372 195.466 77.3637C197.467 76.2515 199.012 74.6845 200.753 72.9175C202.927 70.7127 205.407 68.1964 209.466 65.8637C211.034 64.9625 212.995 66.569 213.376 68.7556C213.667 68.5412 213.956 68.3264 214.243 68.1111Z" fill="#F56EB3"/>
<path d="M111.736 0C157.925 0 197.555 28.0857 214.478 68.1111C214.192 68.3264 213.903 68.5412 213.612 68.7556C213.231 66.569 211.269 64.9625 209.701 65.8637C205.642 68.1964 203.162 70.7127 200.989 72.9175C199.248 74.6845 197.703 76.2515 195.701 77.3637C187.878 80.4372 183.645 80.8564 178.904 81.326C175.205 81.6923 171.197 82.0892 164.933 83.8002C164.782 83.8413 164.628 83.8972 164.485 83.9614C160.159 85.9098 157.375 86.6119 153.612 87.3284C153.033 87.4386 152.106 86.3768 151.592 85.7891C151.526 85.7133 151.467 85.6454 151.416 85.5889C151.304 85.464 151.205 85.2674 151.204 85.0996C151.192 83.1238 150.442 83.0064 149.105 82.8637C148.781 81.7939 147.841 81.9923 146.425 82.6833C144.939 83.408 143.323 83.7933 141.695 84.074C137.964 84.7169 135.018 86.7709 131.844 89.3503C130.389 90.5331 128.613 91.3974 126.857 92.2526C125.811 92.7619 124.771 93.268 123.81 93.8363C123.473 94.0354 123.129 94.2448 122.777 94.4584C121.96 94.9556 121.103 95.4763 120.216 95.9441C118.924 96.6247 117.441 96.8007 115.984 96.7019C110.121 96.3044 108.419 96.465 106.344 96.6607C105.875 96.705 105.386 96.751 104.826 96.7929C104.138 96.8442 103.538 96.4385 103.038 95.9629C102.577 95.5239 102.199 94.9727 102.197 94.3358C102.192 92.9228 102.192 91.9179 102.195 90.8198C102.198 89.857 102.384 88.9053 102.705 87.9975C103.22 86.5408 103.606 85.2156 103.976 83.5671C104.509 81.1944 105.763 79.0373 107.613 77.4599C111.638 74.0301 114.612 71.0221 117.657 67.943C120.439 65.1286 123.281 62.2547 127.037 58.9449C127.476 58.558 127.957 58.212 128.456 57.9056C134.294 54.3169 137.3 51.4302 140.513 48.3452C141.4 47.494 142.302 46.6276 143.284 45.7272C145.671 43.5386 149.112 42.557 152.296 43.1459C153.48 43.3649 154.703 43.7937 156.201 44.8637C156.881 45.3495 158.6 44.8913 157.321 43.489C157.244 43.4043 157.152 43.3331 157.054 43.2733C156.714 43.0655 156.411 42.889 156.072 42.7118C155.353 42.3363 154.895 41.5185 155.511 40.9906C155.967 40.599 157.076 40.2978 157.621 40.5516C158.92 41.1561 161.116 41.4192 162.482 41.184C163.501 41.0088 163.334 40.0289 162.306 39.9308C162.123 39.9133 161.934 39.8971 161.746 39.881C160.616 39.7841 159.544 39.6922 160.201 39.3637C160.625 39.152 160.998 38.9702 161.322 38.8126L161.325 38.8112L161.326 38.8106C162.136 38.4165 162.634 38.1742 162.819 37.9958C163.537 37.3034 161.195 37.3883 160.199 37.4533C155.083 37.7874 149.933 38.4084 147.201 38.8637C143.267 39.9878 140.122 42.2174 136.17 45.02C133.392 46.9893 130.216 49.2414 126.087 51.5918C125.175 52.1102 124.324 52.7662 123.596 53.5199C114.13 63.3115 109.243 65.5055 105.135 67.3498C102.35 68.6002 99.9233 69.6898 96.6698 72.8774C96.1213 73.4149 95.2248 73.4825 94.6822 72.939C94.5326 72.7891 94.367 72.6148 94.1701 72.3968C93.909 72.1079 93.9861 71.707 94.1224 71.3423C94.2195 71.0827 94.3685 70.7977 94.6266 70.6968L94.7154 70.6621C95.9036 70.198 96.8024 69.847 97.9316 69.1343C99.125 68.3811 100.469 67.8637 101.88 67.8637H102.701C103.632 67.8637 106.73 62.2301 105.943 60.6455C105.863 60.4846 105.727 60.3635 105.591 60.2424C105.538 60.1951 105.485 60.1477 105.435 60.098C104.652 59.3146 104.308 58.2135 104.093 57.1266C103.039 51.7896 95.5785 47.0073 89.4388 47.9309C88.2761 48.1058 87.2545 48.8006 86.5854 49.7674C86.0484 50.5433 85.7947 51.1748 85.723 51.922C85.6959 52.2041 85.476 52.5804 85.2433 52.7421C84.454 53.2905 82.5364 54.2544 81.6026 54.482C81.2894 54.5583 81.1184 54.6839 81.0578 54.8906C80.9602 55.2235 80.7057 55.587 80.4647 55.9312C80.3235 56.1328 80.187 56.3277 80.0894 56.506C79.794 57.0456 79.7081 57.2132 79.62 57.822L79.6145 57.8606C79.5547 58.2758 79.4501 59.0024 79.1201 59.2262C78.7196 59.4978 78.4707 59.7285 78.3279 59.9553C78.0043 60.4695 78.4624 61.0725 78.9408 61.4471L78.9422 61.4483C80.1415 62.3875 81.0555 63.1034 82.534 64.815C83.6416 66.0972 84.0258 68.6266 83.7594 70.2999C83.2426 73.5453 80.8091 72.8344 79.0006 70.0905C75.1643 64.2699 74.9241 63.3184 74.1823 60.3803C73.7476 58.6587 73.1407 56.2549 71.5371 51.7894C71.319 51.1822 71.0241 50.5735 70.6931 50.0196C67.0495 43.9226 65.3898 40.1882 64.2571 37.6397C62.5085 33.7053 62.0162 32.5977 57.4198 29.9873C57.2785 29.9071 57.1306 29.8286 56.9859 29.7547C56.4976 29.5058 55.2612 28.8654 54.139 28.2032C52.802 27.4143 51.4159 26.6247 49.8636 26.6353C49.2275 26.6397 48.6535 26.6223 48.2011 26.3637C47.2735 25.9408 45.0561 26.0093 44.6567 26.7684L41 25.3058C60.2462 9.49283 84.8823 0 111.736 0Z" fill="#CB1C8D"/>
</svg>
