<svg width="1200" height="260" viewBox="0 0 1200 260" fill="none" xmlns="http://www.w3.org/2000/svg">
<path fill-rule="evenodd" clip-rule="evenodd" d="M1074 259C1143.59 259 1200 201.021 1200 129.5C1200 57.9791 1143.59 0 1074 0C1004.41 0 948 57.9791 948 129.5C948 201.021 1004.41 259 1074 259ZM1073.5 208C1114.65 208 1148 173.75 1148 131.5C1148 89.2502 1114.65 55 1073.5 55C1032.35 55 999 89.2502 999 131.5C999 173.75 1032.35 208 1073.5 208Z" fill="#00A40D"/>
<path d="M81.6191 55.9777C81.53 55.9812 81.4407 55.9843 81.3513 55.9871C81.2402 55.9904 81.1289 55.9932 81.0173 55.9952C80.8452 55.9984 80.6729 56 80.5 56C65.3123 56 53 43.6878 53 28.5C53 13.3122 65.3123 1 80.5 1C81.0032 1 81.5034 1.01349 82 1.04022V1H172.5C187.688 1 200 13.3122 200 28.5V170C194.144 220.678 155.846 260 100 260C45.7849 260 9.23145 216.167 0.000244141 170.5C0.000244141 155.312 12.0884 143 27 143C41.9116 143 54 155.312 54 170.5C58.0737 190.875 75.9263 209 97.5 209C120.214 209 139.291 190.982 142 169V56H82V55.9598L81.8054 55.9696L81.6191 55.9777Z" fill="#00A40D"/>
<path d="M266 28.5C266 29.3424 265.965 30.1761 265.896 31H266L266.991 160C272 186.187 295.395 206 323.5 206C351.605 206 375 186.187 380.009 160H380V31H380.104C380.035 30.1761 380 29.3424 380 28.5C380 12.7599 392.312 0 407.5 0C422.688 0 435 12.7599 435 28.5C435 29.3424 434.965 30.1761 434.896 31H435V160C435 186.522 423.2 211.957 402.196 230.711C381.192 249.464 352.704 260 323 260C293.296 260 264.808 249.464 243.804 230.711C222.8 211.957 211 186.522 211 160V31H211.104C211.083 30.7414 211.064 30.4818 211.049 30.2213C211.039 30.0469 211.031 29.8721 211.024 29.6968C211.013 29.415 211.005 29.1322 211.002 28.8484C211.001 28.7324 211 28.6163 211 28.5C211 12.7599 223.312 0 238.5 0C253.688 0 266 12.7599 266 28.5Z" fill="#00A40D"/>
<path fill-rule="evenodd" clip-rule="evenodd" d="M780 1H863C883.687 1 903.527 7.90088 918.154 20.1844C932.782 32.4681 941 49.1283 941 66.5C941 83.8717 932.782 100.532 918.154 112.815C913.511 116.715 908.342 120.072 902.788 122.838C909.312 126.062 915.356 130.123 920.715 134.942C935.624 148.351 944 166.537 944 185.5C944 204.463 935.624 222.649 920.715 236.058C905.924 249.361 885.904 256.882 865 257C864.833 257.001 864.667 257 864.5 257H779.5C765.417 257 754 245.583 754 231.5V27C754 12.6406 765.641 1 780 1ZM865 206C879.359 206 891 194.359 891 180C891 165.641 879.359 154 865 154L864.744 154.001L864.5 154.005V154H805V206H864.5V205.995C864.666 205.998 864.833 206 865 206ZM805 53H863V53.1713C875.946 54.6587 886 65.6553 886 79C886 92.3447 875.946 104.513 863 106H805V53Z" fill="#00A40D"/>
<path d="M576.18 22.1134C582.713 28.7341 587.907 36.4579 591.587 44.8528C595.365 36.4579 600.698 28.7341 607.407 22.1134C621.753 7.95447 641.211 0 661.5 0C681.79 0 701.248 7.95447 715.594 22.1134C729.821 36.1545 737.867 55.1567 738 75C738.002 75.1666 738 75.3333 738 75.5V228H737.996C737.999 228.166 738 228.333 738 228.5C738 244.24 725.241 257 709.5 257C693.76 257 681 244.24 681 228.5L681.001 228.281C681.002 228.187 681.003 228.094 681.005 228H681V75.0221C676.568 63.3196 665.256 55 652 55C638.565 55 625.303 63.5468 621 75.5V228H620.996C620.999 228.166 621 228.333 621 228.5C621 244.24 608.241 257 592.5 257C576.76 257 564 244.24 564 228.5L564.001 228.297L564.003 228.13L564.005 228H564V75.5C560.027 63.5876 548.249 55 535 55C521.752 55 510.51 63.5876 506.536 75.5L506 228H505.996L505.998 228.14L505.999 228.242C506 228.328 506 228.414 506 228.5C506 244.24 493.241 257 477.5 257C461.76 257 449 244.24 449 228.5L449.001 228.295L449.003 228.1L449.005 228H449V75.5L449 75.3334C449 75.2222 449 75.1111 449 75C449.13 55.1567 456.966 36.1545 470.821 22.1134C484.792 7.95447 503.742 0 523.5 0C543.259 0 562.208 7.95447 576.18 22.1134Z" fill="#00A40D"/>
</svg>
